<svg width="64" height="64" viewBox="0 0 64 64" fill="none" xmlns="http://www.w3.org/2000/svg">
<path d="M45.2345 41.3867C45.1248 41.3867 45.017 41.3579 44.922 41.303L34.5 35.2862C34.405 35.2314 34.326 35.1524 34.2712 35.0574C34.2163 34.9623 34.1875 34.8545 34.1875 34.7447V22.7112C34.1875 22.6015 34.2164 22.4938 34.2712 22.3987C34.3261 22.3037 34.405 22.2248 34.5 22.17L44.9215 16.153C45.0165 16.0981 45.1243 16.0692 45.234 16.0692C45.3437 16.0692 45.4515 16.0981 45.5465 16.153L49.6272 18.5092C49.6989 18.55 49.7618 18.6045 49.8123 18.6696C49.8628 18.7348 49.8999 18.8093 49.9215 18.8888C49.9431 18.9683 49.9487 19.0514 49.9381 19.1331C49.9275 19.2149 49.9008 19.2937 49.8596 19.3651C49.8184 19.4364 49.7635 19.499 49.698 19.549C49.6325 19.5991 49.5578 19.6357 49.4781 19.6568C49.3984 19.6779 49.3153 19.683 49.2337 19.6718C49.152 19.6606 49.0734 19.6334 49.0022 19.5917L45.234 17.4167L35.438 23.072V34.384L45.2345 40.04L49.0027 37.865C49.0739 37.8233 49.1525 37.7961 49.2342 37.7849C49.3158 37.7738 49.3989 37.7789 49.4786 37.7999C49.5583 37.821 49.633 37.8576 49.6985 37.9077C49.764 37.9578 49.8189 38.0203 49.8601 38.0917C49.9013 38.163 49.928 38.2419 49.9386 38.3236C49.9492 38.4053 49.9436 38.4884 49.922 38.5679C49.9004 38.6475 49.8633 38.722 49.8128 38.7871C49.7623 38.8522 49.6994 38.9067 49.6277 38.9475L45.547 41.3035C45.4519 41.3582 45.3442 41.3869 45.2345 41.3867Z" fill="#CCE1EE"/>
<path d="M45.2346 29.353C45.1249 29.353 45.0171 29.3241 44.9221 29.2693L34.7274 23.3835C34.585 23.3 34.4814 23.1636 34.4392 23.0041C34.397 22.8445 34.4197 22.6748 34.5022 22.5318C34.5847 22.3889 34.7204 22.2844 34.8797 22.2412C35.039 22.1979 35.2089 22.2194 35.3524 22.301L45.2346 28.0063L49.0029 25.8313C49.1463 25.7497 49.3162 25.7282 49.4755 25.7714C49.6348 25.8147 49.7705 25.9191 49.853 26.0621C49.9356 26.205 49.9582 26.3748 49.916 26.5343C49.8738 26.6939 49.7702 26.8303 49.6279 26.9138L45.5471 29.2698C45.4521 29.3245 45.3443 29.3532 45.2346 29.353Z" fill="#CCE1EE"/>
<path d="M19.5833 55.9407C19.4175 55.9407 19.2585 55.8749 19.1413 55.7577C19.0241 55.6405 18.9583 55.4815 18.9583 55.3157V8.76775C18.9583 8.60199 19.0241 8.44301 19.1413 8.3258C19.2585 8.20859 19.4175 8.14275 19.5833 8.14275C19.749 8.14275 19.908 8.20859 20.0252 8.3258C20.1424 8.44301 20.2083 8.60199 20.2083 8.76775V55.3157C20.2083 55.4815 20.1424 55.6405 20.0252 55.7577C19.908 55.8749 19.749 55.9407 19.5833 55.9407Z" fill="#0069AB"/>
<path d="M49.3153 8.05925H14.6848C14.5191 8.05925 14.3601 8.1251 14.2429 8.24231C14.1257 8.35952 14.0598 8.51849 14.0598 8.68425V55.3158C14.0598 55.4815 14.1257 55.6405 14.2429 55.7577C14.3601 55.8749 14.5191 55.9408 14.6848 55.9408H49.3153C49.4811 55.9408 49.64 55.8749 49.7573 55.7577C49.8745 55.6405 49.9403 55.4815 49.9403 55.3158V8.68425C49.9403 8.51849 49.8745 8.35952 49.7573 8.24231C49.64 8.1251 49.4811 8.05925 49.3153 8.05925ZM48.6903 54.6908H15.3098V9.30925H48.6903V54.6908Z" fill="#011D29"/>
<path d="M45.2147 48.375H41.4167C41.251 48.375 41.092 48.3092 40.9748 48.1919C40.8576 48.0747 40.7917 47.9158 40.7917 47.75C40.7917 47.5842 40.8576 47.4253 40.9748 47.3081C41.092 47.1908 41.251 47.125 41.4167 47.125H45.2147C45.3805 47.125 45.5395 47.1908 45.6567 47.3081C45.7739 47.4253 45.8397 47.5842 45.8397 47.75C45.8397 47.9158 45.7739 48.0747 45.6567 48.1919C45.5395 48.3092 45.3805 48.375 45.2147 48.375Z" fill="#0069AB"/>
<path d="M45.2147 51.709H34.813C34.6472 51.709 34.4883 51.6432 34.371 51.5259C34.2538 51.4087 34.188 51.2498 34.188 51.084C34.188 50.9182 34.2538 50.7593 34.371 50.6421C34.4883 50.5248 34.6472 50.459 34.813 50.459H45.2147C45.3805 50.459 45.5395 50.5248 45.6567 50.6421C45.7739 50.7593 45.8397 50.9182 45.8397 51.084C45.8397 51.2498 45.7739 51.4087 45.6567 51.5259C45.5395 51.6432 45.3805 51.709 45.2147 51.709Z" fill="#0069AB"/>
<path d="M33.0603 34.4968C32.9506 34.4967 32.8428 34.4679 32.7478 34.413L27.4768 31.3698C27.3818 31.3149 27.3029 31.236 27.248 31.141C27.1932 31.046 27.1643 30.9382 27.1643 30.8285V24.742C27.1643 24.6323 27.1932 24.5245 27.248 24.4295C27.3029 24.3345 27.3818 24.2556 27.4768 24.2008L32.7478 21.1578C32.8428 21.1029 32.9506 21.074 33.0603 21.074C33.17 21.074 33.2778 21.1029 33.3728 21.1578L38.6438 24.2C38.7388 24.2549 38.8177 24.3338 38.8726 24.4288C38.9274 24.5238 38.9563 24.6315 38.9563 24.7413V30.8278C38.9563 30.9375 38.9274 31.0452 38.8726 31.1402C38.8177 31.2353 38.7388 31.3141 38.6438 31.369L33.3728 34.4123C33.2779 34.4674 33.1701 34.4965 33.0603 34.4968ZM28.4143 30.4678L33.0603 33.15L37.7063 30.4678V25.103L33.0603 22.4208L28.4143 25.103V30.4678Z" fill="#0069AB"/>
<path d="M33.0605 28.4102C32.9508 28.4102 32.843 28.3814 32.748 28.3265L27.5917 25.35C27.5201 25.3093 27.4572 25.2547 27.4067 25.1896C27.3562 25.1245 27.3191 25.05 27.2975 24.9704C27.2759 24.8909 27.2702 24.8078 27.2808 24.7261C27.2915 24.6444 27.3182 24.5655 27.3594 24.4942C27.4006 24.4228 27.4555 24.3603 27.521 24.3102C27.5865 24.2601 27.6612 24.2235 27.7409 24.2024C27.8206 24.1814 27.9036 24.1763 27.9853 24.1874C28.067 24.1986 28.1456 24.2258 28.2167 24.2675L33.0605 27.064L37.8792 24.282C38.0228 24.1991 38.1934 24.1767 38.3536 24.2196C38.5137 24.2625 38.6502 24.3673 38.7331 24.5109C38.816 24.6545 38.8384 24.8251 38.7955 24.9852C38.7526 25.1453 38.6478 25.2819 38.5042 25.3647L33.373 28.327C33.2779 28.3817 33.1701 28.4104 33.0605 28.4102Z" fill="#0069AB"/>
</svg>
