<svg width="64" height="64" viewBox="0 0 64 64" fill="none" xmlns="http://www.w3.org/2000/svg">
<path d="M36.1875 42.807H32.25C32.0842 42.807 31.9253 42.7412 31.8081 42.6239C31.6908 42.5067 31.625 42.3478 31.625 42.182V30.4022C31.625 30.2365 31.6908 30.0775 31.8081 29.9603C31.9253 29.8431 32.0842 29.7772 32.25 29.7772H36.1875C36.3533 29.7772 36.5122 29.8431 36.6294 29.9603C36.7467 30.0775 36.8125 30.2365 36.8125 30.4022V42.182C36.8125 42.3478 36.7467 42.5067 36.6294 42.6239C36.5122 42.7412 36.3533 42.807 36.1875 42.807ZM32.875 41.557H35.5625V31.0272H32.875V41.557Z" fill="#0069AB"/>
<path d="M42.4268 42.807H38.4893C38.3235 42.807 38.1645 42.7412 38.0473 42.6239C37.9301 42.5067 37.8643 42.3478 37.8643 42.182V21.1875C37.8643 21.0217 37.9301 20.8628 38.0473 20.7456C38.1645 20.6283 38.3235 20.5625 38.4893 20.5625H42.4268C42.5925 20.5625 42.7515 20.6283 42.8687 20.7456C42.9859 20.8628 43.0518 21.0217 43.0518 21.1875V42.182C43.0518 42.3478 42.9859 42.5067 42.8687 42.6239C42.7515 42.7412 42.5925 42.807 42.4268 42.807ZM39.1143 41.557H41.8018V21.8125H39.1143V41.557Z" fill="#0069AB"/>
<path d="M48.666 42.807H44.7285C44.5628 42.807 44.4038 42.7411 44.2866 42.6239C44.1694 42.5067 44.1035 42.3478 44.1035 42.182V26.2612C44.1035 26.0955 44.1694 25.9365 44.2866 25.8193C44.4038 25.7021 44.5628 25.6362 44.7285 25.6362H48.666C48.8318 25.6362 48.9907 25.7021 49.108 25.8193C49.2252 25.9365 49.291 26.0955 49.291 26.2612V42.182C49.291 42.3478 49.2252 42.5067 49.108 42.6239C48.9907 42.7411 48.8318 42.807 48.666 42.807ZM45.3535 41.557H48.041V26.8862H45.3535V41.557Z" fill="#0069AB"/>
<path d="M22.2342 27.6482C22.1501 27.5112 22.0323 27.398 21.892 27.3195C21.7518 27.241 21.5937 27.1998 21.4329 27.1998C21.2722 27.1998 21.1141 27.241 20.9738 27.3195C20.8335 27.398 20.7157 27.5112 20.6317 27.6482L17.6849 32.45C17.5893 32.6057 17.5411 32.7859 17.5463 32.9685C17.5514 33.1512 17.6097 33.3283 17.714 33.4784C17.8182 33.6284 17.964 33.7448 18.1334 33.8134C18.3027 33.8819 18.4884 33.8996 18.6677 33.8642L19.8237 33.6362V36.6725C19.8239 36.9217 19.9231 37.1607 20.0993 37.3369C20.2755 37.5131 20.5145 37.6122 20.7637 37.6125H22.1024C22.3517 37.6122 22.5906 37.5131 22.7668 37.3369C22.943 37.1607 23.0422 36.9217 23.0424 36.6725V33.6365L24.1982 33.8645C24.3774 33.8998 24.5631 33.8821 24.7324 33.8136C24.9018 33.7451 25.0475 33.6287 25.1518 33.4788C25.2561 33.3288 25.3145 33.1516 25.3197 32.969C25.325 32.7864 25.2769 32.6062 25.1814 32.4505L22.2342 27.6482ZM22.5382 32.2632C22.4476 32.2454 22.3542 32.2479 22.2647 32.2704C22.1752 32.293 22.0918 32.3351 22.0205 32.3937C21.9492 32.4524 21.8917 32.5261 21.8523 32.6095C21.8129 32.693 21.7924 32.7842 21.7924 32.8765V36.3625H21.0749V32.8765C21.0749 32.7842 21.0545 32.693 21.0151 32.6095C20.9756 32.5261 20.9182 32.4524 20.8469 32.3937C20.7756 32.3351 20.6922 32.293 20.6027 32.2704C20.5132 32.2479 20.4198 32.2454 20.3292 32.2632L19.1214 32.5012L21.4342 28.7325L23.7469 32.5012L22.5382 32.2632Z" fill="#011D29"/>
<path d="M21.4329 26.3015C21.5986 26.3015 21.7576 26.2356 21.8748 26.1184C21.992 26.0012 22.0579 25.8423 22.0579 25.6765V23.2515C22.0579 23.0857 21.992 22.9268 21.8748 22.8096C21.7576 22.6923 21.5986 22.6265 21.4329 22.6265C21.2671 22.6265 21.1081 22.6923 20.9909 22.8096C20.8737 22.9268 20.8079 23.0857 20.8079 23.2515V25.6765C20.8079 25.8423 20.8737 26.0012 20.9909 26.1184C21.1081 26.2356 21.2671 26.3015 21.4329 26.3015Z" fill="#011D29"/>
<path d="M27.0412 28.2345H24.6162C24.4505 28.2345 24.2915 28.3003 24.1743 28.4176C24.0571 28.5348 23.9912 28.6937 23.9912 28.8595C23.9912 29.0253 24.0571 29.1842 24.1743 29.3014C24.2915 29.4186 24.4505 29.4845 24.6162 29.4845H27.0412C27.207 29.4845 27.3659 29.4186 27.4832 29.3014C27.6004 29.1842 27.6662 29.0253 27.6662 28.8595C27.6662 28.6937 27.6004 28.5348 27.4832 28.4176C27.3659 28.3003 27.207 28.2345 27.0412 28.2345Z" fill="#011D29"/>
<path d="M18.875 28.8595C18.875 28.6937 18.8091 28.5348 18.6919 28.4176C18.5747 28.3003 18.4157 28.2345 18.25 28.2345H15.825C15.6592 28.2345 15.5002 28.3003 15.383 28.4176C15.2658 28.5348 15.2 28.6937 15.2 28.8595C15.2 29.0253 15.2658 29.1842 15.383 29.3014C15.5002 29.4186 15.6592 29.4845 15.825 29.4845H18.25C18.4157 29.4845 18.5747 29.4186 18.6919 29.3014C18.8091 29.1842 18.875 29.0253 18.875 28.8595Z" fill="#011D29"/>
<path d="M23.6837 27.2337C23.7657 27.2336 23.8469 27.2173 23.9227 27.1858C23.9984 27.1543 24.0671 27.1081 24.125 27.05L25.8397 25.3352C25.9536 25.2174 26.0166 25.0595 26.0151 24.8956C26.0137 24.7317 25.948 24.575 25.8321 24.4591C25.7162 24.3432 25.5595 24.2775 25.3956 24.2761C25.2317 24.2746 25.0738 24.3376 24.956 24.4515L23.2412 26.1662C23.1538 26.2536 23.0943 26.365 23.0701 26.4862C23.046 26.6074 23.0584 26.7331 23.1056 26.8473C23.1529 26.9615 23.233 27.0591 23.3358 27.1278C23.4385 27.1965 23.5594 27.2332 23.683 27.2332L23.6837 27.2337Z" fill="#011D29"/>
<path d="M18.7405 27.05C18.8584 27.1638 19.0163 27.2268 19.1801 27.2254C19.344 27.224 19.5008 27.1583 19.6166 27.0424C19.7325 26.9265 19.7983 26.7697 19.7997 26.6059C19.8011 26.442 19.7381 26.2841 19.6243 26.1662L17.9095 24.4515C17.8519 24.3918 17.7829 24.3442 17.7066 24.3114C17.6304 24.2787 17.5484 24.2614 17.4654 24.2607C17.3824 24.26 17.3001 24.2758 17.2233 24.3072C17.1465 24.3387 17.0767 24.3851 17.018 24.4438C16.9593 24.5024 16.9129 24.5722 16.8815 24.649C16.8501 24.7258 16.8343 24.8081 16.835 24.8911C16.8357 24.9741 16.8529 25.0561 16.8857 25.1324C16.9185 25.2086 16.9661 25.2776 17.0258 25.3353L18.7405 27.05Z" fill="#011D29"/>
<path d="M8.98682 42.807C9.15258 42.807 9.31155 42.7411 9.42876 42.6239C9.54597 42.5067 9.61182 42.3477 9.61182 42.182V14.9015C9.61182 14.7357 9.67766 14.5768 9.79488 14.4595C9.91209 14.3423 10.0711 14.2765 10.2368 14.2765H53.7633C53.9291 14.2765 54.0881 14.3423 54.2053 14.4595C54.3225 14.5768 54.3883 14.7357 54.3883 14.9015V42.182C54.3883 42.3477 54.4542 42.5067 54.5714 42.6239C54.6886 42.7411 54.8476 42.807 55.0133 42.807C55.1791 42.807 55.3381 42.7411 55.4553 42.6239C55.5725 42.5067 55.6383 42.3477 55.6383 42.182V14.9015C55.6377 14.4044 55.44 13.9278 55.0885 13.5763C54.737 13.2248 54.2604 13.0271 53.7633 13.0265H10.2368C9.73972 13.0271 9.26315 13.2248 8.91165 13.5763C8.56015 13.9278 8.36241 14.4044 8.36182 14.9015V42.182C8.36182 42.3477 8.42766 42.5067 8.54488 42.6239C8.66209 42.7411 8.82106 42.807 8.98682 42.807Z" fill="#011D29"/>
<path d="M12.842 17.432C12.6763 17.432 12.5173 17.4978 12.4001 17.6151C12.2829 17.7323 12.217 17.8912 12.217 18.057V42.182C12.217 42.3478 12.2829 42.5067 12.4001 42.6239C12.5173 42.7411 12.6763 42.807 12.842 42.807H51.1583C51.3241 42.807 51.483 42.7411 51.6002 42.6239C51.7174 42.5067 51.7833 42.3478 51.7833 42.182V18.057C51.7833 17.8912 51.7174 17.7323 51.6002 17.6151C51.483 17.4978 51.3241 17.432 51.1583 17.432H12.842ZM13.467 18.682H29.292V41.557H13.467V18.682ZM50.5333 41.557H30.543V18.682H50.5333V41.557Z" fill="#011D29"/>
<path d="M57.875 44.9015H6.125C5.62788 44.902 5.15128 45.0997 4.79976 45.4512C4.44824 45.8028 4.25053 46.2794 4.25 46.7765V49.0985C4.25053 49.5956 4.44824 50.0722 4.79976 50.4237C5.15128 50.7752 5.62788 50.973 6.125 50.9735H57.875C58.3721 50.973 58.8487 50.7752 59.2002 50.4237C59.5518 50.0722 59.7495 49.5956 59.75 49.0985V46.7765C59.7495 46.2794 59.5518 45.8028 59.2002 45.4512C58.8487 45.0997 58.3721 44.902 57.875 44.9015ZM58.5 49.0985C58.5 49.2642 58.4342 49.4232 58.3169 49.5404C58.1997 49.6576 58.0408 49.7235 57.875 49.7235H6.125C5.95924 49.7235 5.80027 49.6576 5.68306 49.5404C5.56585 49.4232 5.5 49.2642 5.5 49.0985V46.7765C5.5 46.6107 5.56585 46.4518 5.68306 46.3345C5.80027 46.2173 5.95924 46.1515 6.125 46.1515H57.875C58.0408 46.1515 58.1997 46.2173 58.3169 46.3345C58.4342 46.4518 58.5 46.6107 58.5 46.7765V49.0985Z" fill="#011D29"/>
<path d="M37.3397 48.4792H26.6599C26.4942 48.4792 26.3352 48.4134 26.218 48.2962C26.1008 48.179 26.0349 48.02 26.0349 47.8542C26.0349 47.6885 26.1008 47.5295 26.218 47.4123C26.3352 47.2951 26.4942 47.2292 26.6599 47.2292H37.3397C37.5054 47.2292 37.6644 47.2951 37.7816 47.4123C37.8988 47.5295 37.9647 47.6885 37.9647 47.8542C37.9647 48.02 37.8988 48.179 37.7816 48.2962C37.6644 48.4134 37.5054 48.4792 37.3397 48.4792Z" fill="#CCE1EE"/>
</svg>
