<svg width="48" height="48" viewBox="0 0 48 48" fill="none" xmlns="http://www.w3.org/2000/svg">
<g clip-path="url(#clip0)">
<path d="M16.0253 23.8763C15.9738 24.001 16.0025 24.1444 16.098 24.2397L22.098 30.2397C22.2304 30.3676 22.4414 30.3639 22.5693 30.2315C22.6941 30.1023 22.6941 29.8975 22.5693 29.7684L17.138 24.337H31.6667C31.8507 24.337 32 24.1877 32 24.0036C32 23.8196 31.8507 23.6703 31.6667 23.6703H17.138L22.5687 18.2396C22.7011 18.1117 22.7048 17.9007 22.5768 17.7683C22.4489 17.6359 22.2379 17.6322 22.1055 17.7601C22.1027 17.7628 22.1 17.7655 22.0973 17.7683L16.0973 23.7683C16.0665 23.7993 16.042 23.836 16.0253 23.8763Z" fill="#2196F3"/>
<path d="M22.3333 17.6703C22.5174 17.67 22.6669 17.819 22.6672 18.0031C22.6674 18.0918 22.6321 18.177 22.5693 18.2396L16.8046 24.0036L22.5693 29.7676C22.6972 29.9 22.6935 30.1111 22.5611 30.239C22.4319 30.3637 22.2271 30.3637 22.098 30.239L16.098 24.239C15.9679 24.1088 15.9679 23.8978 16.098 23.7676L22.098 17.7676C22.1604 17.7053 22.245 17.6703 22.3333 17.6703Z" fill="white"/>
<path d="M16.3333 23.6705H31.6667C31.8507 23.6705 32 23.8197 32 24.0038C32 24.1879 31.8507 24.3372 31.6667 24.3372H16.3333C16.1492 24.3372 16 24.1879 16 24.0038C16 23.8197 16.1493 23.6705 16.3333 23.6705Z" fill="white"/>
</g>
<rect x="47.5" y="47.5" width="47" height="47" transform="rotate(-180 47.5 47.5)" stroke="white"/>
<defs>
<clipPath id="clip0">
<rect width="16" height="16" fill="white" transform="translate(32 32) rotate(-180)"/>
</clipPath>
</defs>
</svg>
